<svg width="58" height="54" viewBox="0 0 58 54" fill="none" xmlns="http://www.w3.org/2000/svg">
<rect width="57.2239" height="54" rx="10" fill="#D95409"/>
<g clip-path="url(#clip0_168_212)">
<path d="M10.3763 18.6502H9.81411C9.12411 18.6502 8.56189 19.1517 8.56189 19.8827V20.5712C8.56189 21.3022 9.12411 21.8037 9.81411 21.8037H10.3763C11.0876 21.8037 11.6286 21.3022 11.6286 20.5712V19.8827C11.6286 19.1475 11.0834 18.6502 10.3763 18.6502Z" fill="white"/>
<path d="M19.8021 23.049C18.0473 23.049 16.9399 23.967 16.3947 24.987L16.3095 23.3167H13.6986V34.0777H16.416V28.115C16.416 26.3215 17.3786 25.2802 18.8182 25.2802C20.2579 25.2802 20.8456 26.1982 20.8456 27.8472V34.082H23.5418V27.1587C23.5418 24.7362 22.4769 23.049 19.8021 23.049Z" fill="white"/>
<path d="M6.99023 25.531H8.78764V34.082H11.505V23.321H6.99023V25.531Z" fill="white"/>
<path d="M37.5462 23.049C34.1601 23.049 32.0475 25.2802 32.0475 28.5527V28.8247C32.0475 32.1397 34.1175 34.3497 37.5462 34.3497C40.3275 34.3497 42.1845 32.9302 42.7084 30.6777H40.0123C39.6971 31.5957 38.9262 32.2417 37.5462 32.2417C35.9149 32.2417 34.9736 31.26 34.8288 29.3432H42.7723C42.9597 25.616 41.1623 23.049 37.5462 23.049ZM34.8927 27.4902C35.144 25.9262 36.0214 25.1527 37.5249 25.1527C39.0497 25.1527 39.8462 26.0282 39.991 27.4902H34.8927Z" fill="white"/>
<path d="M28.1588 30.784V25.531H30.9997V23.321H28.1588V19.6702H25.4414V31.056C25.4414 33.2235 26.634 34.3497 29.1427 34.3497C29.7688 34.3497 30.544 34.2435 31.0466 34.0777V31.9697C30.7527 32.076 30.2544 32.1992 29.7518 32.1992C28.5592 32.2035 28.1588 31.7657 28.1588 30.784Z" fill="white"/>
<path d="M50.3793 23.134C48.8118 23.134 47.7044 24.052 47.1806 25.4078L47.1167 23.321H44.5057V34.082H47.2231V28.744C47.2231 26.6785 48.1644 25.531 50.2344 25.531C50.507 25.531 50.818 25.5523 51.0096 25.5735V23.1978C50.8393 23.1553 50.5667 23.134 50.3793 23.134Z" fill="white"/>
</g>
<defs>
<clipPath id="clip0_168_212">
<rect width="46" height="17" fill="white" transform="translate(6 18)"/>
</clipPath>
</defs>
</svg>
