<svg width="58" height="54" viewBox="0 0 58 54" fill="none" xmlns="http://www.w3.org/2000/svg">
<rect width="57.2239" height="54" rx="10" fill="#57028B"/>
<g clip-path="url(#clip0_168_131)">
<path d="M17.5396 18.7706C18.6356 17.6058 20.0893 16.9254 21.7972 16.9254C25.1243 16.9254 27.3302 19.3829 27.7522 23.0643C27.889 24.2599 27.8878 25.9454 27.8864 27.8977C27.8862 28.0979 27.8862 28.301 27.8862 28.5065V35.8202H23.3107V30.4108C23.3107 30.4108 23.3014 25.7811 23.2735 24.9159C23.1507 21.1474 20.9454 18.7795 17.5392 18.7769C16.5115 19.8753 15.9609 21.2183 15.8797 23.2717C15.8685 23.5581 15.8713 24.5732 15.8751 25.9112C15.877 26.6044 15.8791 27.3843 15.8797 28.1944C15.8831 31.7203 15.8797 35.8209 15.8797 35.8209H11.3043V27.496C11.3043 27.2107 11.2991 26.923 11.294 26.6342C11.2836 26.0533 11.2732 25.4678 11.3043 24.8881C11.356 23.9217 11.5212 22.9717 11.967 22.0892C12.9873 20.0674 15.078 18.7656 17.3068 18.7656C17.3846 18.7656 17.4626 18.7676 17.5396 18.7706Z" fill="white"/>
<path d="M45.9195 28.3061C45.9507 27.7264 45.9402 27.1409 45.9299 26.56C45.9247 26.2712 45.9195 25.9835 45.9195 25.6983V17.3733H41.3442C41.3442 17.3733 41.3408 21.474 41.3442 24.9998C41.3447 25.8099 41.3469 26.5897 41.3488 27.2829C41.3525 28.6209 41.3553 29.6361 41.3442 29.9225C41.263 31.976 40.7123 33.3189 39.6847 34.4173C36.2786 34.4149 34.0733 32.0468 33.9505 28.2784C33.9225 27.4131 33.9107 25.2659 33.9107 22.7791V17.3698L29.3387 17.374V24.6876C29.3387 24.8932 29.3384 25.0962 29.3384 25.2964C29.337 27.2487 29.3358 28.9342 29.4726 30.1298C29.8938 33.8113 32.0997 36.2687 35.4268 36.2687C37.1347 36.2687 38.5884 35.5883 39.6844 34.4236C39.7614 34.4266 39.8392 34.4284 39.9171 34.4284C42.1459 34.4284 44.2366 33.1266 45.2569 31.1048C45.7027 30.2222 45.8679 29.2723 45.9196 28.3059L45.9195 28.3061Z" fill="white"/>
</g>
<defs>
<clipPath id="clip0_168_131">
<rect width="34.6567" height="19.3433" fill="white" transform="translate(11.2836 16.9254)"/>
</clipPath>
</defs>
</svg>
