<svg width="58" height="54" viewBox="0 0 58 54" fill="none" xmlns="http://www.w3.org/2000/svg">
<rect width="57.2239" height="54" rx="10" fill="#32BCAD"/>
<path d="M39.0751 36.5397C37.6627 36.5397 36.3343 35.9898 35.3357 34.9914L29.936 29.5919C29.557 29.2118 28.8962 29.213 28.5172 29.5919L23.0979 35.0112C22.099 36.0094 20.7707 36.5594 19.3582 36.5594H18.2942L25.1328 43.3981C27.2686 45.5338 30.7314 45.5338 32.8673 43.3981L39.7257 36.5397H39.0751Z" fill="white"/>
<path d="M19.358 17.4403C20.7705 17.4403 22.0989 17.9904 23.0975 18.9887L28.5169 24.4089C28.9072 24.7992 29.5445 24.8009 29.9358 24.4084L35.3353 19.0084C36.3342 18.0101 37.6625 17.4601 39.075 17.4601H39.7253L32.8671 10.6019C30.7313 8.46602 27.2685 8.46602 25.1326 10.6019L18.2942 17.4403H19.358Z" fill="white"/>
<path d="M45.3981 23.1328L41.2536 18.9883C41.1624 19.0248 41.0636 19.0477 40.9593 19.0477H39.0751C38.1008 19.0477 37.1472 19.4427 36.4589 20.1315L31.0592 25.5312C30.5541 26.0365 29.8902 26.2894 29.2268 26.2894C28.5629 26.2894 27.8995 26.0365 27.3942 25.5317L21.9744 20.1119C21.2859 19.4231 20.3325 19.028 19.3582 19.028H17.0412C16.9425 19.028 16.85 19.0047 16.7628 18.9718L12.6019 23.1328C10.466 25.2684 10.466 28.7312 12.6019 30.8673L16.7626 35.028C16.8498 34.9952 16.9425 34.9718 17.0412 34.9718H19.3582C20.3325 34.9718 21.2859 34.5768 21.9744 33.888L27.3937 28.4686C28.3733 27.4899 30.0807 27.4894 31.0592 28.4691L36.4589 33.8682C37.1472 34.5571 38.1008 34.9522 39.0751 34.9522H40.9593C41.0638 34.9522 41.1623 34.9748 41.2538 35.0114L45.3981 30.8673C47.534 28.7312 47.534 25.2684 45.3981 23.1328Z" fill="white"/>
</svg>
